<svg id="Layer_1" data-name="Layer 1" xmlns="http://www.w3.org/2000/svg" width="124.73" height="35.64" viewBox="0 0 124.73 35.64"><title>Untitled-2</title><path d="M2.32,9h9.1V35.76h13v7.61H2.32Z" transform="translate(-2.32 -8.37)"/><path d="M26,26c0-11.32,6.45-17.66,16-17.66s16,6.4,16,17.66-6.45,18-16,18S26,37.34,26,26Zm22.63,0c0-6.24-2.54-9.84-6.67-9.84s-6.66,3.6-6.66,9.84,2.54,10.15,6.66,10.15S48.59,32.27,48.59,26Z" transform="translate(-2.32 -8.37)"/><path d="M79.09,8.37a15.32,15.32,0,0,1,11,4.55l-5,5.6a8,8,0,0,0-5.92-2.33c-4.65,0-8.14,3.7-8.14,9.94,0,6.45,2.85,10.05,9,10.05a5.09,5.09,0,0,0,2.64-.64V30.79H77.61V23.38H90.73V39.77A19.36,19.36,0,0,1,78.88,44c-9.41,0-17.13-5.81-17.13-17.55C61.75,14.92,69.68,8.37,79.09,8.37Z" transform="translate(-2.32 -8.37)"/><path d="M95.12,26c0-11.32,6.45-17.66,16-17.66s16,6.4,16,17.66-6.45,18-16,18S95.12,37.34,95.12,26Zm22.62,0c0-6.24-2.53-9.84-6.66-9.84s-6.66,3.6-6.66,9.84,2.54,10.15,6.66,10.15S117.74,32.27,117.74,26Z" transform="translate(-2.32 -8.37)"/></svg>